<?xml version="1.0" encoding="UTF-8" standalone="no"?>
<!DOCTYPE svg PUBLIC "-//W3C//DTD SVG 1.1//EN" "http://www.w3.org/Graphics/SVG/1.1/DTD/svg11.dtd">
<svg xmlns="http://www.w3.org/2000/svg" version="1.1" viewBox="0 0 1024 1024">
<g stroke-width="2.00" fill="none" stroke-linecap="butt">
<path stroke="#eedc9a" stroke-opacity="0.965" vector-effect="non-scaling-stroke" d="
  M 214.94 529.69
  C 199.46 544.94 179.63 562.33 160.35 580.74
  A 1.12 1.11 -21.7 0 0 160.00 581.55
  L 160.00 614.50
  A 0.50 0.50 0.0 0 0 160.50 615.00
  L 308.50 615.00
  A 0.50 0.50 0.0 0 0 309.00 614.50
  L 309.00 577.75
  A 0.50 0.50 0.0 0 0 308.50 577.25
  L 219.26 577.25
  A 1.09 1.09 0.0 0 1 218.48 575.39
  Q 221.22 572.60 224.11 570.12
  C 245.20 552.00 267.42 534.06 284.01 511.54
  C 319.55 463.26 298.75 407.56 236.51 404.81
  C 207.17 403.51 177.55 414.24 160.61 438.64
  A 0.90 0.89 -53.9 0 0 160.80 439.87
  L 192.12 463.89
  A 0.49 0.49 0.0 0 0 192.81 463.80
  Q 207.09 445.67 230.01 443.05
  C 241.87 441.70 252.26 447.82 255.68 459.12
  C 262.28 480.90 229.25 515.57 214.94 529.69"
/>
<path stroke="#eedc9a" stroke-opacity="0.965" vector-effect="non-scaling-stroke" d="
  M 440.11 617.95
  C 481.56 608.63 494.31 568.88 496.74 531.83
  Q 498.44 506.09 495.21 480.51
  C 491.15 448.29 477.67 417.25 443.26 407.97
  C 422.27 402.30 394.13 403.87 374.92 415.58
  C 351.62 429.78 342.71 457.74 340.01 483.50
  Q 336.29 519.01 341.69 553.71
  C 346.00 581.47 359.38 605.71 387.00 615.46
  C 403.00 621.11 423.55 621.68 440.11 617.95"
/>
<path stroke="#eedc9a" stroke-opacity="0.965" vector-effect="non-scaling-stroke" d="
  M 750.55 505.23
  A 0.40 0.40 0.0 0 1 750.54 505.93
  C 730.06 517.31 716.60 532.54 713.81 555.97
  C 709.66 590.67 732.64 610.63 764.49 617.02
  Q 796.90 623.53 827.28 613.97
  C 856.74 604.69 872.84 580.79 865.91 549.56
  C 861.29 528.76 843.18 515.39 825.17 505.70
  A 0.68 0.68 0.0 0 1 825.18 504.50
  C 841.20 496.30 856.16 487.97 859.62 468.43
  C 864.55 440.52 851.86 419.75 825.25 410.76
  Q 789.28 398.61 753.19 411.46
  C 733.06 418.62 719.99 432.42 719.31 454.24
  C 718.45 481.93 727.89 492.19 750.55 505.23"
/>
<path stroke="#eedc9a" stroke-opacity="0.965" vector-effect="non-scaling-stroke" d="
  M 664.25 580.50
  L 689.75 580.50
  A 0.50 0.50 0.0 0 0 690.25 580.00
  L 690.25 546.23
  A 0.53 0.52 90.0 0 0 689.73 545.70
  L 664.51 545.77
  A 0.76 0.76 0.0 0 1 663.75 545.01
  L 663.75 410.50
  A 0.75 0.75 0.0 0 0 663.00 409.75
  L 622.56 409.75
  A 1.17 1.17 0.0 0 0 621.63 410.21
  L 522.08 542.08
  A 1.63 1.61 63.6 0 0 521.76 543.05
  L 521.76 580.03
  A 0.47 0.46 90.0 0 0 522.22 580.50
  L 624.00 580.50
  A 0.50 0.50 0.0 0 1 624.50 581.00
  L 624.50 614.50
  A 0.50 0.50 0.0 0 0 625.00 615.00
  L 663.35 615.00
  A 0.41 0.40 90.0 0 0 663.75 614.59
  L 663.75 581.00
  A 0.50 0.50 0.0 0 1 664.25 580.50"
/>
<path stroke="#eedc9a" stroke-opacity="0.965" vector-effect="non-scaling-stroke" d="
  M 433.99 578.46
  C 457.69 561.08 455.42 505.67 451.32 480.11
  C 448.61 463.24 441.41 445.31 422.48 442.60
  C 379.47 436.46 381.12 504.78 382.78 529.32
  C 383.95 546.52 388.72 575.64 408.40 581.87
  Q 423.02 586.49 433.99 578.46"
/>
<path stroke="#eedc9a" stroke-opacity="0.965" vector-effect="non-scaling-stroke" d="
  M 761.99 468.63
  C 767.58 478.63 779.74 486.09 789.78 490.36
  A 1.14 1.12 -45.3 0 0 790.70 490.35
  C 802.84 484.74 821.46 471.05 818.73 455.34
  C 817.15 446.22 809.53 442.02 800.74 441.01
  C 789.89 439.77 775.50 439.36 766.68 445.26
  C 758.81 450.54 757.44 460.49 761.99 468.63"
/>
<path stroke="#eedc9a" stroke-opacity="0.965" vector-effect="non-scaling-stroke" d="
  M 757.53 547.79
  C 750.89 563.21 757.04 579.53 774.17 583.84
  C 786.04 586.82 801.98 587.20 812.90 580.65
  C 823.82 574.10 825.85 560.76 821.62 549.46
  C 816.77 536.51 803.55 526.20 790.97 521.24
  A 1.33 1.30 45.6 0 0 790.03 521.22
  C 777.46 525.72 762.81 535.54 757.53 547.79"
/>
<path stroke="#eedc9a" stroke-opacity="0.965" vector-effect="non-scaling-stroke" d="
  M 624.47 466.27
  A 0.33 0.33 0.0 0 0 623.88 466.07
  L 563.23 545.22
  A 0.33 0.33 0.0 0 0 563.49 545.75
  L 624.18 545.75
  A 0.33 0.33 0.0 0 0 624.51 545.42
  L 624.47 466.27"
/>
</g>
<path fill="#debb3a" fill-opacity="0.925" d="
  M 156.81 0.00
  L 867.56 0.00
  C 906.76 1.20 943.46 15.54 972.08 42.03
  Q 1021.08 87.40 1024.00 156.31
  L 1024.00 868.31
  C 1021.04 952.91 955.30 1019.87 870.19 1024.00
  L 154.44 1024.00
  C 71.86 1020.39 3.03 955.11 0.34 870.84
  Q 1.12 867.06 0.79 863.34
  Q 0.74 862.78 1.01 863.27
  L 1.18 863.58
  Q 1.52 864.18 1.50 863.49
  L 1.49 862.85
  Q 1.48 862.29 1.85 862.71
  L 2.07 862.96
  Q 2.88 863.91 2.37 862.28
  Q 2.06 861.32 2.61 860.54
  A 1.35 1.33 61.9 0 0 2.87 859.66
  Q 2.75 857.10 2.77 854.52
  Q 2.79 852.68 2.54 849.36
  Q 2.30 846.23 2.66 843.07
  A 1.60 1.59 33.9 0 0 2.47 842.11
  Q 2.11 841.45 2.46 840.82
  A 0.70 0.69 -44.5 0 0 2.47 840.20
  Q 2.07 839.39 2.53 838.82
  A 0.40 0.40 0.0 0 0 2.51 838.30
  C 2.32 838.09 2.17 837.21 2.40 836.94
  A 0.47 0.44 61.6 0 0 2.50 836.56
  L 2.27 835.17
  A 0.30 0.29 77.7 0 1 2.47 834.84
  L 2.83 834.73
  Q 2.91 834.71 2.85 834.66
  Q 2.10 834.02 2.32 833.04
  A 0.28 0.27 86.6 0 1 2.50 832.83
  L 2.86 832.72
  Q 3.12 832.63 2.87 832.54
  Q 1.65 832.11 1.77 830.96
  A 0.14 0.13 82.9 0 1 1.85 830.85
  L 2.11 830.73
  A 0.20 0.19 -32.6 0 0 2.18 830.44
  Q 1.56 829.64 1.88 828.59
  A 1.27 1.23 -46.8 0 0 1.87 827.88
  Q 1.73 827.43 1.91 827.00
  A 1.05 1.02 -41.6 0 0 1.96 826.33
  Q 1.74 825.50 1.97 824.69
  A 0.97 0.97 0.0 0 0 1.91 824.03
  Q 1.62 823.47 1.94 822.90
  A 0.80 0.80 0.0 0 0 1.94 822.10
  Q 1.61 821.51 1.93 820.91
  A 0.89 0.89 0.0 0 0 1.95 820.08
  Q 1.68 819.53 1.91 819.00
  A 1.05 1.02 -41.6 0 0 1.96 818.33
  Q 1.74 817.50 1.97 816.69
  A 0.97 0.97 0.0 0 0 1.91 816.03
  Q 1.63 815.47 1.94 814.89
  A 0.83 0.83 0.0 0 0 1.94 814.09
  C 1.66 813.57 1.94 812.74 1.94 812.27
  Q 1.94 523.51 1.94 234.75
  Q 1.94 226.35 2.42 222.09
  Q 2.46 221.76 2.34 221.44
  Q 2.22 221.11 2.40 220.92
  A 0.42 0.40 62.0 0 0 2.50 220.56
  L 2.27 219.17
  A 0.30 0.29 77.7 0 1 2.47 218.84
  L 2.83 218.73
  Q 2.91 218.71 2.85 218.66
  Q 2.11 218.03 2.31 217.07
  A 0.34 0.33 -3.2 0 1 2.54 216.82
  L 2.85 216.73
  Q 2.97 216.69 2.86 216.62
  Q 1.70 215.86 2.55 214.80
  A 0.38 0.37 42.0 0 0 2.52 214.30
  C 2.33 214.11 2.16 213.21 2.40 212.94
  A 0.44 0.44 0.0 0 0 2.50 212.57
  L 2.27 211.17
  A 0.30 0.29 77.7 0 1 2.47 210.84
  L 2.83 210.73
  Q 2.91 210.71 2.85 210.66
  Q 2.11 210.03 2.31 209.07
  A 0.34 0.33 -3.2 0 1 2.54 208.82
  L 2.81 208.74
  Q 2.96 208.69 2.84 208.61
  Q 1.71 207.84 2.55 206.80
  A 0.38 0.37 42.0 0 0 2.52 206.30
  C 2.33 206.11 2.16 205.21 2.40 204.94
  A 0.44 0.44 0.0 0 0 2.50 204.57
  L 2.27 203.17
  A 0.30 0.29 77.7 0 1 2.47 202.84
  L 2.83 202.73
  Q 2.91 202.71 2.85 202.66
  Q 2.11 202.03 2.31 201.07
  A 0.34 0.33 -3.2 0 1 2.54 200.82
  L 2.81 200.74
  Q 2.96 200.69 2.84 200.61
  Q 1.71 199.84 2.55 198.80
  A 0.38 0.37 42.0 0 0 2.52 198.30
  C 2.33 198.11 2.16 197.21 2.40 196.94
  A 0.44 0.44 0.0 0 0 2.50 196.57
  L 2.27 195.17
  A 0.30 0.29 77.7 0 1 2.47 194.84
  L 2.83 194.73
  Q 2.91 194.71 2.85 194.66
  Q 2.11 194.03 2.31 193.08
  A 0.35 0.34 87.3 0 1 2.54 192.82
  L 2.92 192.70
  Q 3.13 192.63 2.92 192.56
  Q 1.67 192.15 1.77 191.01
  A 0.27 0.26 77.1 0 1 1.90 190.80
  C 2.00 190.75 2.05 190.75 2.04 190.61
  Q 1.62 185.12 2.44 179.72
  Q 2.57 178.85 2.36 177.31
  Q 2.19 176.08 2.52 174.85
  A 1.05 1.02 37.0 0 0 2.39 174.00
  Q 2.10 173.57 2.38 173.09
  A 0.89 0.89 0.0 0 0 2.45 172.34
  Q 2.15 171.54 2.47 170.72
  A 0.74 0.72 -48.8 0 0 2.44 170.14
  C 2.22 169.72 2.52 168.47 2.52 168.15
  Q 2.47 163.98 2.83 159.82
  Q 2.96 158.29 1.43 155.72
  A 0.29 0.29 0.0 0 0 0.96 155.69
  Q 0.63 156.09 0.00 155.94
  L 0.00 155.19
  C 3.91 68.75 70.19 2.74 156.81 0.00
  Z
  M 214.94 529.69
  C 199.46 544.94 179.63 562.33 160.35 580.74
  A 1.12 1.11 -21.7 0 0 160.00 581.55
  L 160.00 614.50
  A 0.50 0.50 0.0 0 0 160.50 615.00
  L 308.50 615.00
  A 0.50 0.50 0.0 0 0 309.00 614.50
  L 309.00 577.75
  A 0.50 0.50 0.0 0 0 308.50 577.25
  L 219.26 577.25
  A 1.09 1.09 0.0 0 1 218.48 575.39
  Q 221.22 572.60 224.11 570.12
  C 245.20 552.00 267.42 534.06 284.01 511.54
  C 319.55 463.26 298.75 407.56 236.51 404.81
  C 207.17 403.51 177.55 414.24 160.61 438.64
  A 0.90 0.89 -53.9 0 0 160.80 439.87
  L 192.12 463.89
  A 0.49 0.49 0.0 0 0 192.81 463.80
  Q 207.09 445.67 230.01 443.05
  C 241.87 441.70 252.26 447.82 255.68 459.12
  C 262.28 480.90 229.25 515.57 214.94 529.69
  Z
  M 440.11 617.95
  C 481.56 608.63 494.31 568.88 496.74 531.83
  Q 498.44 506.09 495.21 480.51
  C 491.15 448.29 477.67 417.25 443.26 407.97
  C 422.27 402.30 394.13 403.87 374.92 415.58
  C 351.62 429.78 342.71 457.74 340.01 483.50
  Q 336.29 519.01 341.69 553.71
  C 346.00 581.47 359.38 605.71 387.00 615.46
  C 403.00 621.11 423.55 621.68 440.11 617.95
  Z
  M 750.55 505.23
  A 0.40 0.40 0.0 0 1 750.54 505.93
  C 730.06 517.31 716.60 532.54 713.81 555.97
  C 709.66 590.67 732.64 610.63 764.49 617.02
  Q 796.90 623.53 827.28 613.97
  C 856.74 604.69 872.84 580.79 865.91 549.56
  C 861.29 528.76 843.18 515.39 825.17 505.70
  A 0.68 0.68 0.0 0 1 825.18 504.50
  C 841.20 496.30 856.16 487.97 859.62 468.43
  C 864.55 440.52 851.86 419.75 825.25 410.76
  Q 789.28 398.61 753.19 411.46
  C 733.06 418.62 719.99 432.42 719.31 454.24
  C 718.45 481.93 727.89 492.19 750.55 505.23
  Z
  M 664.25 580.50
  L 689.75 580.50
  A 0.50 0.50 0.0 0 0 690.25 580.00
  L 690.25 546.23
  A 0.53 0.52 90.0 0 0 689.73 545.70
  L 664.51 545.77
  A 0.76 0.76 0.0 0 1 663.75 545.01
  L 663.75 410.50
  A 0.75 0.75 0.0 0 0 663.00 409.75
  L 622.56 409.75
  A 1.17 1.17 0.0 0 0 621.63 410.21
  L 522.08 542.08
  A 1.63 1.61 63.6 0 0 521.76 543.05
  L 521.76 580.03
  A 0.47 0.46 90.0 0 0 522.22 580.50
  L 624.00 580.50
  A 0.50 0.50 0.0 0 1 624.50 581.00
  L 624.50 614.50
  A 0.50 0.50 0.0 0 0 625.00 615.00
  L 663.35 615.00
  A 0.41 0.40 90.0 0 0 663.75 614.59
  L 663.75 581.00
  A 0.50 0.50 0.0 0 1 664.25 580.50
  Z"
/>
<path fill="#debb3a" fill-opacity="0.925" d="
  M 0.34 870.84
  L 0.00 867.69
  L 0.00 155.94
  Q 0.63 156.09 0.96 155.69
  A 0.29 0.29 0.0 0 1 1.43 155.72
  Q 2.96 158.29 2.83 159.82
  Q 2.47 163.98 2.52 168.15
  C 2.52 168.47 2.22 169.72 2.44 170.14
  A 0.74 0.72 -48.8 0 1 2.47 170.72
  Q 2.15 171.54 2.45 172.34
  A 0.89 0.89 0.0 0 1 2.38 173.09
  Q 2.10 173.57 2.39 174.00
  A 1.05 1.02 37.0 0 1 2.52 174.85
  Q 2.19 176.08 2.36 177.31
  Q 2.57 178.85 2.44 179.72
  Q 1.62 185.12 2.04 190.61
  C 2.05 190.75 2.00 190.75 1.90 190.80
  A 0.27 0.26 77.1 0 0 1.77 191.01
  Q 1.67 192.15 2.92 192.56
  Q 3.13 192.63 2.92 192.70
  L 2.54 192.82
  A 0.35 0.34 87.3 0 0 2.31 193.08
  Q 2.11 194.03 2.85 194.66
  Q 2.91 194.71 2.83 194.73
  L 2.47 194.84
  A 0.30 0.29 77.7 0 0 2.27 195.17
  L 2.50 196.57
  A 0.44 0.44 0.0 0 1 2.40 196.94
  C 2.16 197.21 2.33 198.11 2.52 198.30
  A 0.38 0.37 42.0 0 1 2.55 198.80
  Q 1.71 199.84 2.84 200.61
  Q 2.96 200.69 2.81 200.74
  L 2.54 200.82
  A 0.34 0.33 -3.2 0 0 2.31 201.07
  Q 2.11 202.03 2.85 202.66
  Q 2.91 202.71 2.83 202.73
  L 2.47 202.84
  A 0.30 0.29 77.7 0 0 2.27 203.17
  L 2.50 204.57
  A 0.44 0.44 0.0 0 1 2.40 204.94
  C 2.16 205.21 2.33 206.11 2.52 206.30
  A 0.38 0.37 42.0 0 1 2.55 206.80
  Q 1.71 207.84 2.84 208.61
  Q 2.96 208.69 2.81 208.74
  L 2.54 208.82
  A 0.34 0.33 -3.2 0 0 2.31 209.07
  Q 2.11 210.03 2.85 210.66
  Q 2.91 210.71 2.83 210.73
  L 2.47 210.84
  A 0.30 0.29 77.7 0 0 2.27 211.17
  L 2.50 212.57
  A 0.44 0.44 0.0 0 1 2.40 212.94
  C 2.16 213.21 2.33 214.11 2.52 214.30
  A 0.38 0.37 42.0 0 1 2.55 214.80
  Q 1.70 215.86 2.86 216.62
  Q 2.97 216.69 2.85 216.73
  L 2.54 216.82
  A 0.34 0.33 -3.2 0 0 2.31 217.07
  Q 2.11 218.03 2.85 218.66
  Q 2.91 218.71 2.83 218.73
  L 2.47 218.84
  A 0.30 0.29 77.7 0 0 2.27 219.17
  L 2.50 220.56
  A 0.42 0.40 62.0 0 1 2.40 220.92
  Q 2.22 221.11 2.34 221.44
  Q 2.46 221.76 2.42 222.09
  Q 1.94 226.35 1.94 234.75
  Q 1.94 523.51 1.94 812.27
  C 1.94 812.74 1.66 813.57 1.94 814.09
  A 0.83 0.83 0.0 0 1 1.94 814.89
  Q 1.63 815.47 1.91 816.03
  A 0.97 0.97 0.0 0 1 1.97 816.69
  Q 1.74 817.50 1.96 818.33
  A 1.05 1.02 -41.6 0 1 1.91 819.00
  Q 1.68 819.53 1.95 820.08
  A 0.89 0.89 0.0 0 1 1.93 820.91
  Q 1.61 821.51 1.94 822.10
  A 0.80 0.80 0.0 0 1 1.94 822.90
  Q 1.62 823.47 1.91 824.03
  A 0.97 0.97 0.0 0 1 1.97 824.69
  Q 1.74 825.50 1.96 826.33
  A 1.05 1.02 -41.6 0 1 1.91 827.00
  Q 1.73 827.43 1.87 827.88
  A 1.27 1.23 -46.8 0 1 1.88 828.59
  Q 1.56 829.64 2.18 830.44
  A 0.20 0.19 -32.6 0 1 2.11 830.73
  L 1.85 830.85
  A 0.14 0.13 82.9 0 0 1.77 830.96
  Q 1.65 832.11 2.87 832.54
  Q 3.12 832.63 2.86 832.72
  L 2.50 832.83
  A 0.28 0.27 86.6 0 0 2.32 833.04
  Q 2.10 834.02 2.85 834.66
  Q 2.91 834.71 2.83 834.73
  L 2.47 834.84
  A 0.30 0.29 77.7 0 0 2.27 835.17
  L 2.50 836.56
  A 0.47 0.44 61.6 0 1 2.40 836.94
  C 2.17 837.21 2.32 838.09 2.51 838.30
  A 0.40 0.40 0.0 0 1 2.53 838.82
  Q 2.07 839.39 2.47 840.20
  A 0.70 0.69 -44.5 0 1 2.46 840.82
  Q 2.11 841.45 2.47 842.11
  A 1.60 1.59 33.9 0 1 2.66 843.07
  Q 2.30 846.23 2.54 849.36
  Q 2.79 852.68 2.77 854.52
  Q 2.75 857.10 2.87 859.66
  A 1.35 1.33 61.9 0 1 2.61 860.54
  Q 2.06 861.32 2.37 862.28
  Q 2.88 863.91 2.07 862.96
  L 1.85 862.71
  Q 1.48 862.29 1.49 862.85
  L 1.50 863.49
  Q 1.52 864.18 1.18 863.58
  L 1.01 863.27
  Q 0.74 862.78 0.79 863.34
  Q 1.12 867.06 0.34 870.84
  Z"
/>
<path fill="#fdfbf3" d="
  M 214.94 529.69
  C 229.25 515.57 262.28 480.90 255.68 459.12
  C 252.26 447.82 241.87 441.70 230.01 443.05
  Q 207.09 445.67 192.81 463.80
  A 0.49 0.49 0.0 0 1 192.12 463.89
  L 160.80 439.87
  A 0.90 0.89 -53.9 0 1 160.61 438.64
  C 177.55 414.24 207.17 403.51 236.51 404.81
  C 298.75 407.56 319.55 463.26 284.01 511.54
  C 267.42 534.06 245.20 552.00 224.11 570.12
  Q 221.22 572.60 218.48 575.39
  A 1.09 1.09 0.0 0 0 219.26 577.25
  L 308.50 577.25
  A 0.50 0.50 0.0 0 1 309.00 577.75
  L 309.00 614.50
  A 0.50 0.50 0.0 0 1 308.50 615.00
  L 160.50 615.00
  A 0.50 0.50 0.0 0 1 160.00 614.50
  L 160.00 581.55
  A 1.12 1.11 -21.7 0 1 160.35 580.74
  C 179.63 562.33 199.46 544.94 214.94 529.69
  Z"
/>
<path fill="#fdfbf3" d="
  M 496.74 531.83
  C 494.31 568.88 481.56 608.63 440.11 617.95
  C 423.55 621.68 403.00 621.11 387.00 615.46
  C 359.38 605.71 346.00 581.47 341.69 553.71
  Q 336.29 519.01 340.01 483.50
  C 342.71 457.74 351.62 429.78 374.92 415.58
  C 394.13 403.87 422.27 402.30 443.26 407.97
  C 477.67 417.25 491.15 448.29 495.21 480.51
  Q 498.44 506.09 496.74 531.83
  Z
  M 433.99 578.46
  C 457.69 561.08 455.42 505.67 451.32 480.11
  C 448.61 463.24 441.41 445.31 422.48 442.60
  C 379.47 436.46 381.12 504.78 382.78 529.32
  C 383.95 546.52 388.72 575.64 408.40 581.87
  Q 423.02 586.49 433.99 578.46
  Z"
/>
<path fill="#fdfbf3" d="
  M 750.55 505.23
  C 727.89 492.19 718.45 481.93 719.31 454.24
  C 719.99 432.42 733.06 418.62 753.19 411.46
  Q 789.28 398.61 825.25 410.76
  C 851.86 419.75 864.55 440.52 859.62 468.43
  C 856.16 487.97 841.20 496.30 825.18 504.50
  A 0.68 0.68 0.0 0 0 825.17 505.70
  C 843.18 515.39 861.29 528.76 865.91 549.56
  C 872.84 580.79 856.74 604.69 827.28 613.97
  Q 796.90 623.53 764.49 617.02
  C 732.64 610.63 709.66 590.67 713.81 555.97
  C 716.60 532.54 730.06 517.31 750.54 505.93
  A 0.40 0.40 0.0 0 0 750.55 505.23
  Z
  M 761.99 468.63
  C 767.58 478.63 779.74 486.09 789.78 490.36
  A 1.14 1.12 -45.3 0 0 790.70 490.35
  C 802.84 484.74 821.46 471.05 818.73 455.34
  C 817.15 446.22 809.53 442.02 800.74 441.01
  C 789.89 439.77 775.50 439.36 766.68 445.26
  C 758.81 450.54 757.44 460.49 761.99 468.63
  Z
  M 757.53 547.79
  C 750.89 563.21 757.04 579.53 774.17 583.84
  C 786.04 586.82 801.98 587.20 812.90 580.65
  C 823.82 574.10 825.85 560.76 821.62 549.46
  C 816.77 536.51 803.55 526.20 790.97 521.24
  A 1.33 1.30 45.6 0 0 790.03 521.22
  C 777.46 525.72 762.81 535.54 757.53 547.79
  Z"
/>
<path fill="#fdfbf3" d="
  M 663.75 581.00
  L 663.75 614.59
  A 0.41 0.40 -90.0 0 1 663.35 615.00
  L 625.00 615.00
  A 0.50 0.50 0.0 0 1 624.50 614.50
  L 624.50 581.00
  A 0.50 0.50 0.0 0 0 624.00 580.50
  L 522.22 580.50
  A 0.47 0.46 90.0 0 1 521.76 580.03
  L 521.76 543.05
  A 1.63 1.61 63.6 0 1 522.08 542.08
  L 621.63 410.21
  A 1.17 1.17 0.0 0 1 622.56 409.75
  L 663.00 409.75
  A 0.75 0.75 0.0 0 1 663.75 410.50
  L 663.75 545.01
  A 0.76 0.76 0.0 0 0 664.51 545.77
  L 689.73 545.70
  A 0.53 0.52 -90.0 0 1 690.25 546.23
  L 690.25 580.00
  A 0.50 0.50 0.0 0 1 689.75 580.50
  L 664.25 580.50
  A 0.50 0.50 0.0 0 0 663.75 581.00
  Z
  M 624.47 466.27
  A 0.33 0.33 0.0 0 0 623.88 466.07
  L 563.23 545.22
  A 0.33 0.33 0.0 0 0 563.49 545.75
  L 624.18 545.75
  A 0.33 0.33 0.0 0 0 624.51 545.42
  L 624.47 466.27
  Z"
/>
<path fill="#debb3a" fill-opacity="0.925" d="
  M 789.78 490.36
  C 779.74 486.09 767.58 478.63 761.99 468.63
  C 757.44 460.49 758.81 450.54 766.68 445.26
  C 775.50 439.36 789.89 439.77 800.74 441.01
  C 809.53 442.02 817.15 446.22 818.73 455.34
  C 821.46 471.05 802.84 484.74 790.70 490.35
  A 1.14 1.12 -45.3 0 1 789.78 490.36
  Z"
/>
<path fill="#debb3a" fill-opacity="0.925" d="
  M 451.32 480.11
  C 455.42 505.67 457.69 561.08 433.99 578.46
  Q 423.02 586.49 408.40 581.87
  C 388.72 575.64 383.95 546.52 382.78 529.32
  C 381.12 504.78 379.47 436.46 422.48 442.60
  C 441.41 445.31 448.61 463.24 451.32 480.11
  Z"
/>
<path fill="#debb3a" fill-opacity="0.925" d="
  M 624.47 466.27
  L 624.51 545.42
  A 0.33 0.33 0.0 0 1 624.18 545.75
  L 563.49 545.75
  A 0.33 0.33 0.0 0 1 563.23 545.22
  L 623.88 466.07
  A 0.33 0.33 0.0 0 1 624.47 466.27
  Z"
/>
<path fill="#debb3a" fill-opacity="0.925" d="
  M 774.17 583.84
  C 757.04 579.53 750.89 563.21 757.53 547.79
  C 762.81 535.54 777.46 525.72 790.03 521.22
  A 1.33 1.30 45.6 0 1 790.97 521.24
  C 803.55 526.20 816.77 536.51 821.62 549.46
  C 825.85 560.76 823.82 574.10 812.90 580.65
  C 801.98 587.20 786.04 586.82 774.17 583.84
  Z"
/>
</svg>
